<svg xmlns="http://www.w3.org/2000/svg" viewBox="0 0 2048 2048" style="enable-background:new 0 0 2048 2048" xml:space="preserve"><style>.st7{fill:#542a19}</style><g id="Layer_11"><linearGradient id="SVGID_1_" gradientUnits="userSpaceOnUse" x1="280.28" y1="1024" x2="1767.72" y2="1024"><stop offset="0" style="stop-color:#fedc52"/><stop offset=".995" style="stop-color:#fcb117"/></linearGradient><circle cx="1024" cy="1024" r="743.72" style="fill:url(#SVGID_1_)"/><g style="opacity:.81"><path d="M540.23 770.15c-2.07 0-4.16-.21-6.27-.66-16.21-3.44-26.55-19.38-23.11-35.58 21.98-103.42 83.1-188.9 176.75-247.22 76.68-47.75 173.11-74.84 264.59-74.41 16.57.08 29.93 13.58 29.85 30.15-.08 16.52-13.5 29.85-30 29.85h-1.93c-130.25 0-337.77 72.7-380.58 274.11-2.98 14.1-15.44 23.76-29.3 23.76z" style="fill:#fff"/></g><ellipse class="st7" cx="1272.31" cy="1288.72" rx="62.77" ry="88.74"/><ellipse class="st7" cx="775.69" cy="1288.72" rx="62.77" ry="88.74"/><g><path d="M633.55 942.99c-3.07 0-6.19-.71-9.12-2.21-9.83-5.04-13.7-17.1-8.66-26.93 77.04-150.08 232.75-243.31 406.38-243.31 86.13 0 170.06 23.07 242.72 66.71 71.45 42.91 129.29 103.93 167.27 176.47 5.12 9.79 1.34 21.87-8.44 27-9.79 5.12-21.87 1.34-27-8.44-71.61-136.76-215.13-221.72-374.55-221.72-158.56 0-300.64 84.9-370.8 221.58-3.53 6.88-10.53 10.85-17.8 10.85z" style="fill:#542a1a"/></g></g></svg>